<?xml version="1.0" encoding="UTF-8" standalone="no"?>
<!-- Created with Inkscape (http://www.inkscape.org/) -->

<svg
   width="450mm"
   height="450mm"
   viewBox="0 0 450 450"
   version="1.1"
   id="svg1"
   xml:space="preserve"
   inkscape:version="1.4.2 (f4327f4, 2025-05-13)"
   sodipodi:docname="hapus.svg"
   inkscape:export-batch-path="Mila Okta Safitri\Bismillah Project_MICROSTOCK\UNSPLASH"
   inkscape:export-batch-name="10 June 2025"
   xmlns:inkscape="http://www.inkscape.org/namespaces/inkscape"
   xmlns:sodipodi="http://sodipodi.sourceforge.net/DTD/sodipodi-0.dtd"
   xmlns="http://www.w3.org/2000/svg"
   xmlns:svg="http://www.w3.org/2000/svg"><sodipodi:namedview
     id="namedview1"
     pagecolor="#ffffff"
     bordercolor="#666666"
     borderopacity="1.0"
     inkscape:showpageshadow="2"
     inkscape:pageopacity="0.0"
     inkscape:pagecheckerboard="0"
     inkscape:deskcolor="#d1d1d1"
     inkscape:document-units="mm"
     inkscape:zoom="0.17449011"
     inkscape:cx="1799.529"
     inkscape:cy="911.22645"
     inkscape:window-width="1366"
     inkscape:window-height="705"
     inkscape:window-x="-8"
     inkscape:window-y="-8"
     inkscape:window-maximized="1"
     inkscape:current-layer="g10"><inkscape:page
       x="0"
       y="0"
       width="450"
       height="450"
       id="page1"
       margin="0"
       bleed="0" /></sodipodi:namedview><defs
     id="defs1" /><g
     inkscape:label="Layer 1"
     inkscape:groupmode="layer"
     id="layer1"
     transform="translate(-501.79062,-127.69217)"><g
       id="g39"
       inkscape:label="cat"><rect
         style="opacity:1;fill:#ffe7c6;fill-opacity:1;stroke-width:0.349999;stroke-linecap:round;stroke-linejoin:round;paint-order:stroke fill markers"
         id="rect37"
         width="450"
         height="450"
         x="501.79062"
         y="127.69217" /><g
         id="g38"
         transform="matrix(1.0098751,0,0,1.0098751,37.140612,-5.7045264)"
         style="stroke-width:0.99022"><path
           id="path38"
           style="fill:#c96842;fill-opacity:1;stroke-width:0.346577;stroke-linecap:round;stroke-linejoin:round;paint-order:stroke fill markers"
           d="m 752.92192,357.09291 c -5.83786,-0.0383 -15.15216,13.2956 -19.25841,17.48347 -13.31195,13.57654 -21.99081,30.50517 -34.30442,44.88545 -29.80878,34.81179 -53.1198,74.10791 -76.84919,112.75507 -9.43004,15.35835 -19.6551,30.35253 -29.61685,45.47503 h 198.04429 c -0.005,-0.61865 -0.0106,-1.23717 -0.0186,-1.85596 -0.94171,-72.6374 -10.15229,-145.74715 -34.10139,-215.07116 -0.89884,-2.60182 -2.26083,-3.66117 -3.89544,-3.6719 z" /><path
           style="fill:#f7a972;fill-opacity:1;stroke-width:0.990203"
           d="m 705.56077,542.85046 c -0.71371,-0.29569 -1.55103,-0.84292 -1.86075,-1.21613 -0.51257,-0.61761 -0.64473,-0.60187 -1.47152,0.17482 -0.49958,0.46951 -1.49024,0.96974 -2.20141,1.11194 -1.73069,0.34614 -4.22339,-1.75442 -4.62552,-3.89784 -0.19779,-1.05474 -0.45103,-1.40608 -0.89196,-1.23696 -1.05656,0.40558 -2.9325,-1.90961 -3.24327,-4.00247 -0.34165,-2.30005 0.59427,-6.19533 2.1098,-8.78188 1.32167,-2.25581 4.00656,-4.24553 6.20267,-4.59666 1.25045,-0.19979 1.50199,-0.35913 1.0058,-0.63694 -0.56091,-0.31367 -0.0994,-1.51182 3.03189,-7.86799 4.76198,-9.66676 7.29434,-15.47275 9.35424,-21.44682 1.42141,-4.12219 1.55692,-4.80778 0.94516,-4.78266 -1.1993,0.05 -2.9212,-0.82639 -3.72781,-1.89572 -0.66385,-0.88013 -0.93722,-0.9618 -2.06314,-0.61626 -1.83294,0.56257 -4.17185,-0.48399 -5.10203,-2.28257 -0.44004,-0.85111 -0.73868,-2.46652 -0.76814,-4.15651 -0.0685,-3.92994 0.82808,-5.30541 4.70683,-7.22067 1.66651,-0.82283 3.15381,-1.6199 3.3051,-1.77119 0.27721,-0.27722 -2.44255,-2.89403 -3.41639,-3.28747 -0.84481,-0.34115 -7.29808,-7.53834 -10.00216,-11.15492 -3.45305,-4.61828 -5.40785,-8.08826 -8.38026,-14.87558 -3.60148,-8.22371 -5.2658,-13.19942 -4.65943,-13.93001 0.36712,-0.44204 0.22876,-0.95211 -0.59593,-2.19831 -1.33061,-2.0107 -4.49301,-10.5414 -5.69206,-15.35452 -1.36292,-5.471 -2.11125,-13.87073 -1.61197,-18.09492 0.35314,-2.98638 0.30019,-3.8813 -0.35513,-6.04605 -0.42306,-1.39748 -0.99615,-2.67465 -1.27342,-2.83818 -0.42356,-0.24974 -6.97622,-14.3786 -14.16142,-30.53414 -0.98272,-2.20965 -2.14367,-4.41035 -2.57986,-4.89055 -0.43604,-0.48 -0.79302,-1.16988 -0.79302,-1.53265 0,-0.36262 -0.2897,-1.48116 -0.64413,-2.48525 -0.93413,-2.64754 -0.32916,-3.14033 2.76617,-2.25266 1.27506,0.36562 3.01535,1.02454 3.86726,1.46403 0.85191,0.43954 3.80158,1.77389 6.55481,2.9653 7.49263,3.24222 20.96417,10.2041 21.17965,10.94518 0.10389,0.35763 1.08487,1.33716 2.17998,2.17718 l 1.99112,1.52731 0.98761,-3.00746 c 0.54324,-1.65408 1.03502,-3.39536 1.09292,-3.86952 0.058,-0.474 0.99516,-3.04322 2.08287,-5.70904 5.32485,-13.05049 13.48923,-25.29995 22.54178,-33.82076 9.69049,-9.12123 16.59453,-12.8955 28.58602,-15.6273 2.58101,-0.58793 4.05637,-1.12028 3.98355,-1.4373 -0.0634,-0.27671 0.59563,-1.92539 1.46497,-3.66327 2.13427,-4.2668 3.40145,-10.04552 3.38212,-15.42371 -0.03,-8.45143 -3.03783,-16.32267 -10.52157,-27.53742 -4.53452,-6.79521 -6.10918,-10.1569 -6.21671,-13.27165 -0.18931,-5.48507 6.33983,-9.98123 14.31266,-9.85607 9.95486,0.15634 18.80348,8.16019 21.74756,19.67148 1.12907,4.4146 1.8671,12.5516 1.50698,16.61531 -0.16483,1.86076 -0.36512,4.33468 -0.44554,5.49762 -0.13286,1.92763 -0.31667,3.65748 -0.7653,7.18914 -0.0884,0.69778 -0.29069,2.41049 -0.44903,3.80604 -0.78354,6.90854 -4.6989,17.34275 -6.70915,17.87939 -0.55253,0.14734 -0.12337,0.52475 1.56571,1.37681 5.03355,2.53895 8.771,6.11862 11.0232,10.55768 2.98094,5.87553 4.89345,14.58474 4.01096,18.26524 -0.35263,1.47117 -0.35062,5.6095 0.01,16.0128 0.26572,7.71595 0.37111,15.00614 0.23326,16.20049 -0.13736,1.19435 -0.32766,3.69395 -0.42256,5.55471 -0.0949,1.86071 -0.27372,4.23948 -0.39709,5.28613 -0.12337,1.04666 -0.32217,2.94968 -0.44154,4.22894 -0.3826,4.10547 -2.94967,16.74638 -4.50834,22.20184 -1.55893,5.4561 -5.56575,17.30629 -6.93502,20.51024 -0.74552,1.74443 -2.47911,5.26501 -3.85237,7.82349 -2.3552,4.38777 -2.45585,4.69255 -1.77261,5.3696 1.03033,1.02088 1.77874,3.96866 1.69683,6.68282 -0.0829,2.74149 -1.77954,6.42899 -3.57007,7.75871 -1.3501,1.0026 -3.07694,0.65401 -3.86877,-0.78098 -0.25672,-0.46502 -0.51311,-0.92389 -0.56985,-1.01939 -0.0564,-0.0954 -0.43755,0.11687 -0.84577,0.472 -1.7708,1.53899 -4.76013,1.32072 -4.76013,-0.34763 0,-1.08442 -0.40358,-1.28112 -1.13242,-0.55213 -0.25074,0.25074 -1.17862,0.61881 -2.06215,0.8181 -2.13128,0.48049 -3.885,-0.3851 -4.07185,-2.01005 -0.0739,-0.64173 -0.37211,-1.19061 -0.66281,-1.21968 -0.29069,-0.03 -0.70566,-0.0769 -0.92209,-0.10589 -0.21627,-0.03 -0.4805,-0.481 -0.58698,-1.00436 -0.10639,-0.52335 -0.1958,0 -0.19929,1.16295 -0.005,2.26483 -0.33566,7.7075 -0.71761,11.84099 -0.12887,1.39555 -0.25124,2.8228 -0.27222,3.17169 -0.25073,4.19063 -4.72302,18.41169 -9.97468,31.71691 -3.65484,9.25973 -5.51445,13.33473 -8.71311,19.09337 -1.46638,2.64 -4.35696,7.94001 -6.4234,11.77777 -2.06649,3.83774 -3.92805,7.09519 -4.13679,7.23879 -0.20877,0.14385 0.28621,1.13307 1.09951,2.19871 0.81345,1.06569 1.80721,2.92574 2.20835,4.13343 1.94337,5.85095 -2.80663,12.58107 -8.91466,12.63092 -1.17457,0.01 -2.31638,0.18182 -2.53734,0.3826 -0.97219,0.88373 -2.94803,1.18941 -4.23673,0.65552 z m 13.98441,-74.6039 c -0.14385,-0.23277 -0.58319,-0.40958 -0.97648,-0.3931 -0.58294,0.0249 -0.55882,0.0969 0.13086,0.3931 1.13162,0.48648 1.14636,0.48648 0.84582,0 z m 2.74079,-15.96255 c 0.26572,-3.31355 0.35113,-6.23759 0.1903,-6.49792 -0.16083,-0.26023 -0.26871,-2.18987 -0.23975,-4.28778 l 0.053,-3.81437 -1.91575,0.26273 c -1.76411,0.24175 -7.99131,2.53526 -8.78134,3.23412 -0.75786,0.67041 4.12869,11.14547 7.45113,15.97264 2.60543,3.78545 2.54084,3.88245 3.24221,-4.86927 z m 30.6189,-26.87895 c 1.03672,-0.35313 1.96585,-0.56137 2.0647,-0.46252 0.0989,0.0989 0.77643,-1.11474 1.50568,-2.69684 3.43586,-7.45412 8.03091,-24.56727 9.12742,-33.99257 0.54379,-4.67413 0.54604,-6.00968 0.02,-10.53241 -0.33266,-2.84868 -0.68374,-5.25817 -0.77989,-5.35433 -0.2867,-0.28669 -4.2168,10.27734 -5.85679,15.74208 -0.83757,2.79109 -2.10311,6.98547 -2.81227,9.32083 -1.32901,4.37668 -5.27544,12.93336 -7.0338,15.25074 -0.98742,1.30128 -0.99262,1.36647 -0.61022,7.61205 0.21228,3.46474 0.39109,6.86703 0.39709,7.56067 l 0.01,1.26113 1.04191,-1.53335 c 0.71441,-1.05131 1.63445,-1.73519 2.92681,-2.17553 z"
           id="path16" /><path
           id="path36"
           style="fill:#f07033;fill-opacity:1;stroke-width:0.990203"
           d="m 759.6151,228.11998 c -0.38895,-0.0179 -0.81641,-0.008 -1.27705,0.035 -5.10503,0.47876 -10.51675,3.58195 -13.80197,7.91373 l -1.65148,2.17755 0.73287,1.55926 c 0.40313,0.85765 1.01889,2.00423 1.36802,2.54777 0.3492,0.54358 0.69637,0.92416 0.77078,0.84575 0.0746,-0.0783 1.10267,-1.59173 2.28453,-3.36278 1.18187,-1.7711 2.96094,-3.88522 3.95371,-4.69838 1.93008,-1.58085 5.8727,-3.69108 8.46549,-4.53115 2.72269,-0.88213 1.87772,-2.36207 -0.8449,-2.4867 z m 15.75207,8.16981 -5.92067,0.0447 c -5.17814,0.0387 -6.34961,0.18413 -9.34198,1.15996 -5.00904,1.63356 -8.02583,4.12194 -6.65732,5.49106 0.15241,0.15291 0.29291,0.27741 0.31631,0.2805 h 4.2e-4 4.2e-4 c 0.0194,-7.5e-4 1.93825,-0.39259 4.26412,-0.87059 2.84948,-0.58555 6.67737,-0.94846 11.7352,-1.11279 5.11026,-0.16597 7.49919,-0.39402 7.48916,-0.71518 -0.01,-0.25938 -0.43775,-1.328 -0.95146,-2.37466 z m -2.0255,10.86796 c -7.59158,-0.24285 -12.01745,1.00181 -17.32901,4.87317 -2.70682,1.97285 -3.03155,2.6625 -2.13796,4.53664 0.8339,1.74861 0.93933,1.77797 2.37341,0.64989 2.14626,-1.68825 7.43077,-3.85873 10.93577,-4.49157 2.51707,-0.45452 4.79181,-0.55912 7.92089,-0.36433 l 4.38964,0.27377 -0.19543,-2.3574 c -0.10738,-1.29654 -0.33015,-2.49211 -0.49448,-2.65644 -0.16448,-0.16433 -2.62275,-0.37283 -5.46283,-0.46373 z m -8.67524,14.1663 c -3.20181,-0.0161 -7.50029,0.74035 -7.90237,1.39077 -0.11288,0.1825 -8.1e-4,0.97247 0.24935,1.7551 0.25038,0.78263 0.52779,1.66067 0.61619,1.95137 h 4.3e-4 c 0.20308,0.66735 0.40454,0.6622 3.65045,-0.0906 1.46852,-0.3406 4.47756,-0.76866 6.68681,-0.95147 3.62417,-0.29984 4.01689,-0.41497 4.01689,-1.17807 0,-1.48859 -3.48235,-2.85717 -7.31775,-2.87714 z m 13.98013,9.85626 -3.12018,0.005 c -6.53948,0.013 -13.31632,2.6823 -12.46216,4.90813 l -4.2e-4,0.002 c 0.2397,0.62485 0.9918,0.66468 7.34217,0.39297 3.89134,-0.16668 7.24483,-0.46619 7.45211,-0.66548 0.20729,-0.19955 0.46963,-1.32562 0.58251,-2.50229 z m -13.08089,10.29893 c -2.03899,0.10118 -3.96868,0.45338 -5.56476,1.04581 -2.02913,0.75317 -2.68693,1.59896 -3.21832,4.13651 l -0.27587,1.31537 2.41341,-0.81458 c 3.03988,-1.02612 9.37447,-1.09422 13.46965,-0.14446 1.58949,0.36859 2.99793,0.5624 3.13029,0.43003 0.13216,-0.13216 0.45753,-1.09538 0.72275,-2.14049 0.58759,-2.31403 0.53066,-2.35669 -4.45534,-3.36698 -2.03457,-0.41227 -4.18283,-0.56239 -6.22181,-0.46121 z m -13.22115,18.20129 c -2.72095,-0.0662 -5.09977,0.74665 -5.09977,2.21378 0,0.81 1.57931,1.72198 4.23464,2.44543 3.15396,0.8592 7.5731,0.70788 8.19425,-0.28094 0.67739,-1.07842 -0.0571,-2.03595 -2.50187,-3.26127 -1.43915,-0.72129 -3.19468,-1.07728 -4.82725,-1.117 z m -18.30491,7.66565 c -3.86691,-0.0387 -7.40218,0.38918 -9.57406,1.2939 -1.71806,0.71566 -4.7089,3.43367 -4.7089,4.27929 0,0.30174 0.0473,0.54881 0.10572,0.54881 0.0581,-5e-5 1.59742,-0.28568 3.42048,-0.63432 7.39838,-1.41572 17.67732,-0.33905 28.1439,2.94792 4.87476,1.53089 6.10036,1.64695 6.30016,0.59724 0.3819,-2.00556 -5.64439,-5.74729 -12.12227,-7.52708 -3.49965,-0.96157 -7.69811,-1.46702 -11.56503,-1.50576 z m -4.56148,12.05487 c -1.57284,0.0744 -3.06903,0.28342 -4.41786,0.63474 -4.9423,1.28731 -9.29167,4.41427 -7.97355,5.73239 0.30783,0.30808 1.19895,0.23216 2.93064,-0.24934 3.35236,-0.93228 12.0926,-1.30897 15.48336,-0.66759 3.85572,0.72933 8.62543,2.39032 11.5326,4.01563 v -4.2e-4 c 4.09998,2.29231 5.86867,1.76392 4.03373,-1.20503 -1.23791,-2.00306 -3.54868,-3.75648 -7.2651,-5.51295 -4.19622,-1.98318 -9.60531,-2.97056 -14.32382,-2.74743 z m -8.74011,11.50312 c -5.54831,0.18051 -6.72878,0.35472 -10.28672,1.51965 -6.13334,2.00815 -7.79174,3.23798 -9.57743,7.10294 -0.813,1.75982 -1.36375,3.31398 -1.2244,3.45334 0.13955,0.1396 0.95007,-0.46331 1.80143,-1.3398 1.94712,-2.00465 3.74325,-2.92153 8.44275,-4.31004 5.02325,-1.48415 12.98823,-1.84892 18.6785,-0.85586 6.64512,1.15974 14.55205,4.61694 19.48255,8.51857 1.57151,1.24365 1.71839,1.48567 1.03865,1.71593 -0.43529,0.14754 -3.04199,1.21774 -5.79262,2.37803 l -5.00121,2.10932 -4.30244,-1.6936 c -7.22362,-2.84349 -12.65143,-3.87133 -20.49594,-3.88632 -2.72791,-0.005 -6.17303,0.27756 -8.03504,0.65916 -4.12065,0.84422 -8.69309,3.02105 -8.81297,4.19547 -0.0474,0.46522 -0.22422,1.29285 -0.39255,1.83934 -0.30428,0.98662 -0.29721,0.9888 1.00159,0.31715 3.5968,-1.85996 12.47835,-2.78351 19.11148,-1.98759 4.37853,0.52541 12.27387,2.34677 13.94728,3.21746 l 1.0496,0.54587 -1.70708,0.45952 c -0.93867,0.25288 -2.36214,0.58226 -3.16355,0.7316 -1.97819,0.36907 -5.09447,2.3337 -4.95361,3.12313 0.0623,0.34889 1.35016,1.24307 2.86198,1.98674 1.51187,0.74372 3.23243,1.36433 3.82356,1.37435 0.68229,0.0141 3.31746,-1.4836 7.21624,-4.10113 8.90321,-5.97736 11.23548,-7.43813 14.54537,-9.11033 1.6281,-0.82259 3.29135,-1.8922 3.69593,-2.3772 0.40478,-0.48474 1.03911,-0.88196 1.40973,-0.88196 1.05555,0 0.6083,-0.59053 -2.55999,-3.38132 -3.57592,-3.14977 -7.05351,-5.4849 -11.00359,-7.38851 -6.79331,-3.27379 -11.82576,-4.2256 -20.7975,-3.93391 z m -64.21374,6.83338 c -0.64,-0.006 -0.86538,0.19007 -0.38455,0.64948 0.21707,0.20743 2.84035,1.74093 5.82969,3.40784 8.41177,4.69061 11.64292,7.17477 25.72163,19.77697 2.84494,2.54649 3.73174,3.08267 3.73174,2.25463 0,-0.21387 0.9514,-1.42988 2.11438,-2.70235 1.16294,-1.27247 2.11479,-2.50311 2.11479,-2.73437 0,-0.23136 -0.42859,-0.70987 -0.95189,-1.06351 -0.52336,-0.35343 -1.98554,-1.62489 -3.24948,-2.82533 -1.88083,-1.78653 -4.14531,-3.08781 -12.47522,-7.16865 -5.59756,-2.74224 -10.84317,-5.23805 -11.65726,-5.54623 -0.81405,-0.30828 -2.46203,-1.10535 -3.66183,-1.77111 -2.31037,-1.28202 -5.72402,-2.26554 -7.132,-2.27737 z m 103.63036,12.52197 c -0.10603,0 -0.66924,0.70157 -1.25178,1.55883 -1.22377,1.80091 -1.1784,1.89982 2.03815,4.44776 3.56397,2.82315 4.24467,1.2698 1.35075,-3.08226 -1.06944,-1.60823 -2.03123,-2.92433 -2.13712,-2.92433 z m -6.06008,14.25854 -0.676,1.3078 c -0.89182,1.72434 -0.85634,2.12118 0.27503,3.06499 1.15684,0.96495 2.37195,1.04715 2.70362,0.1828 0.13485,-0.35143 -0.32793,-1.51998 -1.02855,-2.59706 z m -43.15594,0.5644 c -0.45696,-0.007 -0.94608,0.35885 -1.28463,1.10182 -0.72925,1.60054 -1.63013,8.35036 -1.93831,14.52347 -0.2967,5.94404 0.32315,14.98807 1.09046,15.91255 1.2377,1.49139 2.32837,-0.5008 2.96391,-5.41397 0.53394,-4.13029 0.73422,-23.28947 0.26072,-24.98245 -0.21036,-0.75228 -0.6352,-1.13376 -1.09215,-1.14142 z m -13.13733,1.34653 c -0.19521,-0.002 -0.40638,0.10514 -0.64105,0.29989 -2.63935,2.19047 -1.35903,17.82849 1.73994,21.25282 2.47307,2.73269 2.93713,-2.66025 1.1886,-13.81587 -0.89226,-5.69269 -1.44157,-7.73011 -2.28749,-7.73684 z m 28.11063,5.05597 c -0.1894,0.005 -0.41111,0.0526 -0.67011,0.13478 -2.45364,0.77874 -5.88465,13.17125 -4.13188,14.92402 2.28243,2.28241 5.81469,-5.01414 5.82969,-12.04856 0.006,-2.24787 -0.20699,-3.03091 -1.0277,-3.01024 z" /><path
           id="path20"
           style="fill:#f07033;fill-opacity:1;stroke-width:0.990203"
           d="m 684.25962,394.80876 c -2.91573,0.0419 -2.79496,0.88237 -2.63244,4.37279 0.088,1.89052 0.97229,4.07309 1.6397,5.29941 1.59723,2.9346 4.92786,5.84464 7.97143,6.96438 2.73115,1.00475 7.6773,1.29936 9.09307,0.54165 0.45003,-0.24075 0.81273,-0.85923 0.80784,-1.37434 -0.0212,-1.92869 -2.04795,-8.01165 -3.01404,-9.04632 -0.54623,-0.58499 -2.80129,-2.27689 -5.01089,-3.75954 -3.89313,-2.61237 -4.11373,-2.84503 -7.41041,-2.97233 -0.5492,-0.0212 -1.02773,-0.0317 -1.44426,-0.0257 z m 53.64188,1.61527 c -2.25195,-0.16161 -6.24428,0.31116 -8.7856,1.17385 -6.9,2.34236 -9.66928,4.68526 -11.09835,9.39 -0.93982,3.09458 -0.88328,5.69969 0.13815,6.34776 1.54255,0.97878 8.16344,0.0511 11.59157,-1.62411 2.95626,-1.44459 8.25901,-6.47513 9.19289,-8.72073 1.08677,-2.61338 1.32811,-5.51002 0.51511,-6.18476 -0.24567,-0.20388 -0.80312,-0.32814 -1.55377,-0.38201 z" /><path
           style="fill:#f07033;fill-opacity:1;stroke-width:0.990203"
           d="m 706.22638,429.61816 c -2.42552,-1.88164 -3.4974,-3.71802 -2.65928,-4.55614 0.34214,-0.34215 1.15175,-0.2947 3.00991,0.17681 1.94147,0.49248 2.94643,0.54233 4.25501,0.21028 2.1146,-0.53674 3.85338,-0.15933 3.84005,0.83343 -0.01,0.83168 -4.7028,5.18139 -5.56045,5.15522 -0.30918,-0.01 -1.60727,-0.82829 -2.88524,-1.81965 z"
           id="path14" /><path
           id="path18"
           style="fill:#de763e;fill-opacity:1;stroke-width:0.990203"
           d="m 656.5167,337.69333 c -0.17826,-0.0108 -0.32209,2.8e-4 -0.41909,0.0375 -0.34169,0.13107 -0.62083,0.51663 -0.62083,0.85628 0,0.33984 3.68909,8.76691 8.19804,18.72652 10.21369,22.56096 9.4788,20.95103 9.91185,21.70264 0.95281,1.65253 1.34317,2.58092 1.34317,3.19388 0,0.36732 0.19729,1.03593 0.43804,1.48596 h -4.2e-4 c 0.68364,1.27736 0.98831,0.99881 1.76605,-1.61442 1.50328,-5.05122 7.50581,-13.1927 11.966,-16.23013 1.54304,-1.05075 1.91772,-2.22239 0.8428,-2.63496 -0.34914,-0.13391 -0.63431,-0.49869 -0.63431,-0.81037 0,-0.54043 -3.59745,-3.94184 -9.09222,-8.59648 -3.46338,-2.93379 -10.19054,-7.94486 -14.88274,-11.08613 -2.13832,-1.43156 -4.04187,-2.85367 -4.22917,-3.15935 -0.40273,-0.65675 -3.33939,-1.79585 -4.58717,-1.87092 z m 102.22148,6.65564 c -1.21722,0.0104 -1.99631,0.41812 -14.24253,7.45843 -4.41924,2.5406 -8.64689,4.86982 -9.39506,5.176 -0.74817,0.30612 -1.46081,0.87276 -1.58368,1.25935 -0.12267,0.38655 -0.88999,1.06209 -1.70539,1.50112 -0.8154,0.4391 -1.47779,0.91091 -1.4729,1.04876 0.006,0.13781 1.33943,0.99864 2.96433,1.91263 3.13963,1.76596 8.44402,6.83038 8.44402,8.06199 0,0.39269 0.6505,1.47411 1.44551,2.40289 1.28422,1.50028 2.15529,3.24648 3.61972,7.25499 0.78068,2.13702 1.73991,1.07001 3.16692,-3.52325 0.39744,-1.27926 2.53951,-6.70277 4.76029,-12.05234 4.51843,-10.88439 6.46063,-16.30238 6.46063,-18.02229 0,-1.47426 -1.00977,-2.48831 -2.46186,-2.47828 z" /><path
           style="fill:#fde9dc;fill-opacity:1;stroke-width:0.990203"
           d="m 705.09011,542.69567 c -0.7211,-0.43854 -1.44129,-1.008 -1.60042,-1.26543 -0.19081,-0.30868 -0.72155,-0.10439 -1.55868,0.60008 -0.69822,0.58748 -1.78843,1.06813 -2.42272,1.06813 -1.38795,0 -3.61173,-2.13182 -4.30836,-4.13019 -0.26223,-0.75151 -0.66011,-1.25284 -0.88467,-1.11404 -0.58614,0.36213 -2.0663,-1.08122 -2.73934,-2.67141 -0.80222,-1.89537 -0.7205,-3.79114 0.30668,-7.11697 0.71375,-2.31084 1.30983,-3.28498 3.11415,-5.08929 1.57226,-1.57226 2.69318,-2.31808 3.79449,-2.52472 1.07832,-0.20229 1.49413,-0.4725 1.34094,-0.87189 -0.12237,-0.31817 1.4429,-3.95852 3.47783,-8.08946 4.62317,-9.38491 7.23395,-15.3304 9.15339,-20.8448 1.5843,-4.5515 1.74339,-5.26365 1.08507,-4.85678 -0.59298,0.36662 -2.75697,-0.85341 -3.74739,-2.1125 -0.5659,-0.71944 -0.9496,-0.91769 -1.14964,-0.59402 -0.19031,0.30767 -1.0152,0.40507 -2.24891,0.26622 -2.60788,-0.2942 -4.12464,-2.04557 -4.52148,-5.22145 -0.59518,-4.76393 0.68768,-6.95135 5.34137,-9.1075 l 2.9273,-1.35634 -0.94991,-1.03332 c -0.52245,-0.5683 -1.44869,-1.3431 -2.0584,-1.72165 -2.86346,-1.7782 -11.47018,-12.19068 -14.82593,-17.93654 -2.01215,-3.44525 -6.53528,-13.56749 -8.13936,-18.21489 l -1.0988,-3.18348 5.94405,-5.91323 c 6.1279,-6.09614 6.84565,-6.5653 10.60024,-6.92872 l 1.94397,-0.1883 0.471,1.94951 c 0.25873,1.07224 0.67635,3.74025 0.92744,5.92892 0.25123,2.18872 0.55527,4.13927 0.67599,4.33463 0.12088,0.19529 0.015,0.35512 -0.23925,0.35512 -0.96574,0 0.84802,2.4471 3.10342,4.18713 2.54509,1.96351 3.00721,1.95092 4.80892,-0.13086 0.52176,-0.60287 1.11988,-1.09611 1.32912,-1.09611 0.51191,0 0.95755,-1.16328 1.13412,-2.96026 0.31667,-3.22288 1.46183,-10.12204 1.84932,-11.14123 l 0.41007,-1.07912 3.08473,0.84018 c 1.69658,0.46202 4.03619,1.1439 5.19918,1.51506 2.36243,0.75397 9.42341,4.38573 11.4952,5.91254 l 1.3458,0.99176 0.82079,-1.16268 c 1.55982,-2.2094 3.44875,-6.40053 7.69887,-17.08218 6.43384,-16.16988 6.82877,-17.05301 13.02206,-29.11847 14.72129,-28.67952 17.24236,-34.63771 20.64006,-48.7805 l 1.53925,-6.40691 -0.25124,-8.88073 -0.25124,-8.88074 0.8673,1.04136 c 2.8752,3.45245 5.66629,10.87066 6.38054,16.95856 0.34564,2.94547 0.35813,4.45425 0.045,5.14528 -0.30917,0.6784 -0.32316,4.9888 -0.045,14.07836 0.66101,21.68032 -0.0399,30.71715 -3.72741,47.98917 -0.5709,2.67482 -1.1993,5.33903 -1.39644,5.92047 -0.1973,0.5815 -0.60257,1.91361 -0.90106,2.96027 -2.38092,8.34983 -6.27026,18.65264 -9.31749,24.68205 -3.16389,6.26027 -3.3449,6.75979 -2.70547,7.46635 1.95122,2.15605 2.25116,7.74532 0.59223,11.03584 -2.13577,4.23633 -4.57218,5.35067 -6.3731,2.91486 -0.87978,-1.19001 -0.98088,-1.22342 -1.70867,-0.56481 -0.44304,0.40108 -1.53584,0.7155 -2.55902,0.73623 -1.64734,0.035 -1.82006,-0.0689 -2.23123,-1.31992 -0.40257,-1.22527 -0.49199,-1.28202 -0.92533,-0.58804 -0.27521,0.44104 -1.23686,0.88917 -2.25824,1.0525 -2.19601,0.35113 -3.70489,-0.50012 -4.06336,-2.29241 -0.14036,-0.70197 -0.43805,-1.12547 -0.68409,-0.97343 -0.23975,0.14784 -0.64458,-0.015 -0.90001,-0.36213 -0.35114,-0.47749 -0.49249,0.35714 -0.5788,3.42428 -0.16433,5.82663 -0.86669,12.38018 -1.77445,16.55473 -1.47965,6.80465 -10.34366,31.03147 -14.45801,39.51637 -0.78948,1.6281 -2.89503,5.62443 -4.67902,8.88073 -1.78394,3.25625 -4.6482,8.48955 -6.36495,11.62952 l -3.1214,5.70904 1.3834,1.63515 c 1.48626,1.75671 2.69799,4.75778 2.69799,6.68202 0,1.6787 -1.35564,5.04279 -2.78974,6.92307 -1.4851,1.94703 -4.78875,3.56869 -7.28175,3.57433 -1.0038,0.002 -2.14561,0.16832 -2.53736,0.36861 -1.64013,0.83913 -2.88304,0.8625 -4.17209,0.0784 z m 16.94033,-89.28968 c 0.31567,-3.35095 0.4795,-6.34113 0.36462,-6.64492 -0.11538,-0.30368 -0.23276,-2.3971 -0.26123,-4.65179 l -0.0514,-4.09953 -1.85552,0.14785 c -1.6219,0.12937 -8.92823,2.81516 -8.92823,3.28227 0,0.22177 1.26139,3.02025 3.85982,8.56392 1.89258,4.03779 5.71694,10.07564 6.12407,9.66856 0.0954,-0.0954 0.43204,-2.91541 0.74777,-6.26631 z m 31.04081,-28.23649 c 0.7625,-0.24474 1.62565,-0.35313 1.91815,-0.24125 0.29718,0.11389 0.55027,-0.12737 0.57365,-0.54647 0.0249,-0.41258 0.72789,-2.28567 1.56637,-4.16196 1.58699,-3.55115 5.56969,-16.99487 7.00009,-23.62915 0.72559,-3.36539 1.88538,-12.00268 1.84877,-13.76853 -0.0249,-1.24096 -1.05255,-10.36319 -1.18147,-10.4958 -0.17132,-0.17632 -4.44256,10.78444 -4.44256,11.40106 0,0.25972 -0.47151,1.77959 -1.04776,3.37712 -0.57625,1.59749 -1.3442,4.18958 -1.70652,5.76019 -1.30419,5.6527 -5.86533,16.3417 -8.43679,19.77132 -0.90071,1.20135 -0.93308,1.49314 -0.60967,5.49762 0.18781,2.32592 0.35064,5.64031 0.36212,7.36536 l 0.02,3.13642 1.37441,-1.51047 c 0.75592,-0.83078 1.99822,-1.71082 2.76068,-1.95566 z"
           id="path13" /><path
           style="fill:#6e1607;fill-opacity:1;stroke-width:0.990203"
           d="m 705.58974,543.54918 c -0.46501,-0.1928 -1.19041,-0.73419 -1.61157,-1.2026 -0.7655,-0.85136 -0.7662,-0.85125 -1.85906,0.16133 -2.22238,2.05966 -5.63617,0.74658 -7.01438,-2.69798 -0.35213,-0.87993 -1.14076,-1.86775 -1.75257,-2.1952 -0.61186,-0.32766 -1.51107,-1.24037 -1.99826,-2.02869 -1.16724,-1.88858 -0.92419,-6.11861 0.52819,-9.19201 1.21683,-2.57506 4.10597,-5.47533 6.11463,-6.13825 1.71021,-0.5644 1.8172,-0.75002 7.00059,-12.14552 3.88405,-8.53879 5.2262,-11.80553 7.30972,-17.79134 l 1.46802,-4.21759 -1.24895,-0.24974 c -0.68693,-0.13736 -1.72425,-0.7251 -2.30519,-1.30599 -0.90435,-0.90441 -1.31582,-1.02064 -2.86276,-0.80861 -1.56028,0.21377 -1.99917,0.0854 -3.21939,-0.94117 -1.8238,-1.5346 -2.56653,-3.36868 -2.56653,-6.33758 0,-4.01861 1.76956,-6.21007 6.44913,-7.98692 1.82809,-0.69413 2.66677,-1.4936 1.56686,-1.4936 -0.66296,0 -8.16384,-7.37675 -11.18024,-10.99517 -3.10465,-3.72436 -5.87177,-7.92653 -7.93656,-12.05242 -2.42628,-4.84835 -6.14749,-14.60217 -6.69552,-17.55004 -0.28121,-1.51183 -1.23391,-4.27119 -2.11744,-6.13196 -2.30574,-4.85593 -4.84509,-12.84209 -5.67718,-17.85466 -1.01913,-6.13909 -0.73882,-16.33975 0.5785,-21.05139 1.03582,-3.70483 4.56669,-10.80782 5.53158,-11.12789 0.43205,-0.14335 0.34015,0.25024 -0.31867,1.36693 -6.73547,11.41569 -7.04909,26.65349 -0.89032,43.25517 0.92264,2.48725 2.13013,5.29332 2.68325,6.23574 1.27942,2.17982 5.4181,6.14309 9.75687,9.3433 3.48012,2.56682 15.78798,10.3431 16.37057,10.3431 0.52785,0 7.52275,-2.93353 10.18787,-4.27259 2.89962,-1.45688 10.61602,-6.57628 12.7918,-8.48664 3.36639,-2.95572 6.4744,-8.95266 10.26345,-19.80349 3.79174,-10.85846 4.57722,-14.9488 4.17604,-21.74745 -0.31967,-5.4147 -0.94567,-7.40488 -4.13484,-13.14114 -1.42242,-2.55848 -2.64953,-5.31521 -2.72691,-6.12601 -0.15783,-1.65373 0.71221,-3.32973 2.73115,-5.26121 2.19217,-2.09721 1.94897,-0.85431 -0.41406,2.11509 -2.11155,2.65363 -2.16519,2.7782 -0.91829,2.13342 1.95861,-1.01284 6.44098,-0.86929 6.44098,0.20629 0,0.20779 -1.12943,0.37761 -2.50983,0.37761 -1.38042,0 -3.01901,0.19379 -3.64135,0.43005 -1.07269,0.40757 -1.09726,0.479 -0.47301,1.37436 2.35599,3.37793 4.9798,8.07083 5.68382,10.1659 l 0.82504,2.45538 0.2787,-1.39389 c 0.43006,-2.14891 2.5444,-7.73733 6.64247,-17.55458 4.32155,-10.3525 5.45786,-13.54906 5.45786,-15.35323 0,-2.55094 -2.13333,-2.15595 -8.07243,1.49458 -1.99761,1.22787 -6.0891,3.60429 -9.09216,5.28099 -3.00306,1.67666 -7.51811,4.28294 -10.03338,5.79181 -2.51528,1.50883 -4.68986,2.62671 -4.83236,2.48421 -0.53804,-0.53804 5.18154,-4.3166 15.28884,-10.10041 4.43972,-2.5406 7.69158,-4.48882 7.22642,-4.32939 -0.46501,0.15934 -3.31969,1.24086 -6.34338,2.4032 -3.0237,1.16234 -8.63759,3.25969 -12.47534,4.66079 -3.83774,1.40109 -7.58398,2.8299 -8.32496,3.17514 -1.23257,0.57424 -1.64653,0.54597 -4.86322,-0.33216 -2.95397,-0.80661 -4.59766,-0.9628 -10.28233,-0.97708 -5.8873,-0.015 -7.09535,0.10139 -9.29964,0.89347 -2.67436,0.96119 -3.44137,0.93912 -2.08757,-0.0599 2.1538,-1.58944 5.30426,-2.13966 12.02155,-2.09946 5.80789,0.035 6.92487,0.16084 9.80202,1.1077 l 3.24716,1.06848 11.55405,-4.61329 c 21.43543,-8.55866 25.28027,-9.72135 27.00028,-8.16477 1.87699,1.69867 1.11488,4.58511 -4.95698,18.77421 -2.4467,5.71763 -5.18644,12.58417 -6.08829,15.25897 -1.56298,4.63572 -1.64,5.11631 -1.64595,10.27293 -0.004,3.24162 -0.27371,6.7161 -0.67319,8.66931 -1.4415,7.04449 -6.67903,21.39333 -9.54644,26.15336 -3.37043,5.59516 -13.15877,12.5085 -22.66914,16.01089 l -5.37225,1.97844 -1.91146,-0.92229 c -6.14064,-2.96296 -16.13731,-9.5326 -21.06921,-13.8464 -2.53351,-2.21594 -2.65063,-2.27083 -2.37507,-1.11299 0.81015,3.404 6.43423,16.39079 9.00301,20.78911 3.39241,5.80859 10.47491,14.35996 15.48414,18.69539 1.9186,1.66052 2.10451,1.73389 2.61707,1.03292 0.82918,-1.13401 1.20319,-0.36911 0.41107,0.84033 -0.3781,0.57684 -2.15945,1.77215 -3.95892,2.65628 -3.99119,1.96104 -5.19503,3.48466 -5.19503,6.57513 0,3.71293 1.8149,6.23905 4.48252,6.23905 1.33012,0 1.33347,-0.005 1.12053,-1.89478 -0.23326,-2.06994 0.65637,-4.02575 1.83129,-4.02575 0.5799,0 0.5789,0.0994 -0.01,0.93987 -1.2028,1.71726 -0.59238,4.65549 1.30714,6.29173 1.29924,1.11918 2.21119,1.26833 2.65743,0.43455 0.52914,-0.98872 4.68076,-14.42349 4.68076,-15.14709 0,-0.34864 -0.53574,-0.55397 -1.44555,-0.55397 -1.78877,0 -2.78339,-0.36013 -2.78339,-1.00741 0,-0.32065 0.85301,-0.49048 2.43162,-0.48349 l 2.43166,0.01 0.69303,-3.46943 0.69307,-3.46943 -1.63379,-1.71746 c -0.89862,-0.94461 -2.39935,-3.09427 -3.33502,-4.77696 -1.92045,-3.4538 -5.2701,-11.68626 -4.90394,-12.05242 0.36862,-0.36862 0.42506,-0.26823 3.53517,6.25731 1.60387,3.3653 3.68565,7.30443 4.62616,8.75357 1.66372,2.56353 1.71761,2.60359 1.99128,1.48011 0.15484,-0.63509 0.39109,-5.40216 0.52575,-10.5935 0.17582,-6.79136 0.37311,-9.30999 0.70372,-8.97948 0.30018,0.30019 0.45502,3.34766 0.44703,8.80447 -0.02,12.60969 -1.16264,18.55593 -7.01458,36.46749 -3.74054,11.44885 -5.32674,15.37206 -10.71457,26.50065 l -4.33343,8.95061 2.48895,0.2887 c 3.57207,0.41457 3.50974,1.05146 -0.10289,1.05146 -2.23232,0 -3.55304,0.23724 -4.86962,0.87448 -5.69361,2.75622 -8.50237,11.95043 -4.63207,15.16253 0.56287,0.46701 0.68814,0.30418 0.93008,-1.20844 0.25873,-1.61691 1.71167,-4.121 2.14182,-3.69085 0.10289,0.10289 -0.13037,1.15814 -0.51876,2.345 -0.45153,1.38112 -0.60502,2.69524 -0.42606,3.65029 0.32816,1.75068 2.52702,4.43448 3.63272,4.43448 1.32202,0 3.32587,-2.08308 4.09962,-4.2617 0.40658,-1.14491 0.88502,-2.08168 1.06299,-2.08168 0.51461,0 0.37661,1.59234 -0.27322,3.14686 -0.55512,1.32862 -0.53304,1.4854 0.31717,2.24931 1.40803,1.26518 2.11949,1.35743 3.99434,0.51805 1.21458,-0.54377 2.19885,-1.47915 3.2971,-3.13328 0.86115,-1.29694 1.74189,-2.35809 1.95721,-2.35809 0.55952,0 -8.2e-4,1.6402 -1.19271,3.48886 l -1.02213,1.58585 h 1.13182 c 3.81492,0 8.55657,-6.12646 8.07163,-10.42897 -0.44853,-3.97899 -3.80049,-7.55702 -8.29944,-8.8591 -3.96791,-1.14835 -4.29902,-1.37302 -2.07084,-1.40499 1.09611,-0.015 3.05981,0.37061 4.36385,0.85846 1.30404,0.48799 2.41977,0.82089 2.47941,0.74002 0.0594,-0.0809 1.79458,-3.28696 3.85542,-7.12471 2.06081,-3.83774 5.01442,-9.26134 6.56356,-12.05242 4.42038,-7.96424 8.40782,-17.34116 13.30736,-31.294 4.89719,-13.9463 5.35421,-16.21963 6.37585,-31.71691 0.66001,-10.01225 0.61696,-22.45392 -0.0914,-26.34186 -0.18681,-1.02673 -0.10739,-1.35914 0.30418,-1.26868 0.8196,0.18031 6.03425,-10.12708 7.53329,-14.89011 0.69542,-2.20965 2.16035,-6.96718 3.25535,-10.57232 1.09501,-3.60514 2.91391,-8.8663 4.04203,-11.6915 1.12808,-2.82516 2.05111,-5.25951 2.05111,-5.4097 0,-0.15035 0.18881,-0.50293 0.42007,-0.78384 0.23075,-0.2807 1.35523,-1.93803 2.49834,-3.68246 2.00835,-3.0649 11.26065,-13.53253 11.96132,-13.53253 0.75796,0 0.16582,0.82524 -3.837,5.34857 -4.70689,5.3188 -7.49983,9.09981 -9.0129,12.20142 -0.89751,1.83994 -0.98277,2.38901 -0.65656,4.22894 0.69073,3.89568 0.5262,14.86729 -0.29169,19.45305 -1.41158,7.91454 -6.61835,25.73125 -8.73584,29.89271 -0.74612,1.46632 -0.74957,1.57091 -0.0584,1.75962 0.40408,0.11038 1.40104,0.20628 2.21509,0.21278 2.11664,0.02 4.87097,0.86759 5.8908,1.8177 0.83094,0.77414 1.23427,1.88363 0.55832,1.5357 -2.87779,-1.48136 -8.11758,-2.61004 -11.52382,-2.48222 -2.80268,0.10539 -5.07471,3.73795 -5.07471,8.11413 0,2.99344 0.56676,4.20812 0.98582,2.11281 0.25723,-1.28661 2.1584,-3.80089 2.56637,-3.39421 0.13237,0.13235 -0.13685,0.98122 -0.59832,1.88673 -1.81356,3.55714 -0.59124,6.47149 2.45838,5.86158 1.31578,-0.26323 2.62272,-1.69158 2.62272,-2.86656 0,-0.98647 2.1095,-3.21899 3.04163,-3.21899 0.7646,0 0.7152,0.15584 -0.482,1.51936 -1.15265,1.31283 -1.31673,1.78724 -1.20679,3.48886 0.11637,1.79893 0.22825,1.98109 1.29429,2.10366 1.3446,0.15484 3.6963,-1.86811 3.6963,-3.17923 0,-0.94152 1.13846,-2.66397 1.76076,-2.66397 0.25773,0 0.31567,0.31117 0.13836,0.74002 -0.92699,2.24481 -1.07104,4.0336 -0.40658,5.04779 0.97518,1.48834 2.23117,1.1033 3.87351,-1.18756 1.56262,-2.17968 2.41068,-5.58473 1.98193,-7.9575 -0.3796,-2.10166 -1.32871,-3.83195 -2.1015,-3.83195 -0.92579,0 -0.60353,-0.82184 3.41748,-8.71551 4.82996,-9.48166 9.42386,-23.28495 12.03444,-36.15987 3.04543,-15.01943 3.42123,-20.39302 3.18538,-45.55137 l -0.1958,-20.86098 -1.26208,-3.76702 c -2.34316,-6.9939 -4.44651,-10.23582 -8.75901,-13.50047 -5.76453,-4.36389 -10.80108,-5.82906 -18.26309,-5.31295 -10.47632,0.72464 -21.59642,4.67072 -29.06882,10.31538 -4.63262,3.49945 -11.47463,10.05341 -14.78977,14.16707 -8.27711,10.27069 -15.94621,24.67421 -18.21735,34.21426 -0.8588,3.60738 -1.63214,4.44171 -1.17826,1.27107 0.93732,-6.54727 6.99969,-20.37265 12.52922,-28.57309 6.93591,-10.28622 15.86609,-19.38152 24.44954,-24.90176 3.97755,-2.55804 10.7814,-5.24723 16.12123,-6.37186 l 4.09942,-0.86334 1.53001,-2.57767 c 2.47212,-4.1649 3.70094,-8.5771 3.94593,-14.16841 0.44704,-10.2056 -2.12319,-17.61327 -10.27928,-29.62459 -5.37339,-7.9133 -6.30367,-9.94477 -6.31576,-13.79211 -0.01,-2.62746 0.13386,-3.17958 1.16623,-4.53452 3.88456,-5.09768 12.44033,-7.34174 19.07635,-5.00348 5.22465,1.84088 11.33862,7.00229 14.09085,11.89534 5.0756,9.02378 5.65704,23.87863 1.74588,44.60196 -0.91989,4.87397 -2.79384,10.37447 -4.42014,12.97411 l -0.96524,1.5429 2.78739,1.6288 c 4.72347,2.76016 7.44633,5.75454 9.80896,10.78709 3.55579,7.574 3.43876,6.4665 3.48307,32.9722 0.03,18.86621 -0.0899,24.48635 -0.6257,28.91537 -2.4911,20.60115 -8.08391,38.87569 -16.75376,54.74288 -1.50563,2.75558 -1.6356,3.19791 -1.03802,3.53231 1.79672,1.00551 2.81282,5.89416 1.89222,9.10396 -0.41007,1.43011 -3.19362,5.95184 -4.01031,6.5148 -1.02144,0.70407 -3.13863,0.32316 -3.95228,-0.71141 l -0.81415,-1.03502 -1.69143,0.83688 c -2.07399,1.02613 -3.75928,0.58384 -4.18124,-1.09736 -0.24475,-0.97598 -0.34714,-1.02622 -0.9633,-0.4735 -1.02288,0.91729 -3.47567,1.21997 -4.70678,0.58079 -0.5815,-0.30168 -1.37143,-1.20964 -1.75547,-2.01724 l -0.69827,-1.46842 -0.22228,1.48015 c -0.12237,0.81405 -0.42255,4.52494 -0.66735,8.2464 -0.50607,7.69003 -1.4332,11.97176 -4.62448,21.35601 -5.53972,16.29011 -10.16579,27.07546 -15.62799,36.43579 -1.13216,1.94012 -2.78449,4.85962 -3.67181,6.48778 -0.88733,1.62815 -2.65398,4.71798 -3.92591,6.86639 l -2.31263,3.90612 1.37845,1.56996 c 3.11041,3.54256 3.95323,8.01159 2.16205,11.46424 -2.15959,4.16285 -5.43388,6.57958 -8.64662,6.38199 -1.06764,-0.0655 -2.19646,0.15833 -2.83195,0.56226 -1.37282,0.87239 -3.37308,1.22487 -4.43972,0.78234 z m 48.32398,-119.10547 1.70697,-0.27321 1.30159,-3.6528 c 1.52216,-4.27179 5.09983,-17.27986 6.58748,-23.9516 1.47655,-6.62195 2.08223,-13.28399 1.70107,-18.71148 l -0.31916,-4.54761 -0.75207,1.69159 c -0.75597,1.70033 -5.35536,15.51187 -7.38869,22.1877 -1.21398,3.98564 -5.01447,11.84844 -7.19964,14.89516 -1.37632,1.919 -1.41008,2.06189 -1.04925,4.44036 0.20528,1.35164 0.49972,4.37124 0.65476,6.71015 l 0.28171,4.25262 1.3841,-1.38411 c 0.91196,-0.91195 1.96636,-1.47716 3.09108,-1.65702 z m 19.16255,-133.95893 c 2.27658,-4.32404 3.40456,-8.6141 4.63112,-17.61436 2.75708,-20.2304 0.77584,-32.69284 -6.4204,-40.38562 -8.35778,-8.93452 -19.43422,-10.34006 -26.42153,-3.35275 -3.741,3.741 -2.8814,7.24085 4.4067,17.94194 4.18019,6.13784 7.20823,12.16855 8.81186,17.55003 0.99536,3.34037 1.13701,4.55629 1.15774,9.93798 0.0249,7.07682 -0.83962,11.39776 -3.22579,16.07942 l -1.40588,2.75837 5.51515,-0.13535 c 3.88545,-0.0954 6.13999,0.0449 7.62964,0.47101 1.16293,0.33365 2.3935,0.57924 2.73454,0.54588 0.34115,-0.035 1.50513,-1.74174 2.58685,-3.7963 z m -62.3819,144.55777 c -0.86251,-0.58534 -1.74543,-0.9547 -1.96206,-0.82084 -0.21677,0.13386 -0.39359,-0.39459 -0.39359,-1.17478 0,-1.2014 -0.31717,-1.66022 -2.07623,-3.00156 -1.14196,-0.87084 -2.29785,-1.85033 -2.56867,-2.17669 -0.27072,-0.32616 -0.85741,-3.12589 -1.30349,-6.22131 -1.03956,-7.21342 -1.09416,-7.4228 -2.07104,-7.9456 -0.45103,-0.24125 -2.45339,-0.60452 -4.44946,-0.80686 -8.35103,-0.84647 -13.96568,-6.25947 -14.48289,-13.96288 -0.26472,-3.93939 0.1993,-4.4536 3.96092,-4.39141 1.81092,0.03 3.77871,0.3796 5.2294,0.92917 4.45805,1.68884 9.17058,6.421 10.12653,10.16859 0.21028,0.82514 0.67684,3.11785 1.03632,5.09484 0.35963,1.97703 0.93412,5.02186 1.27697,6.76628 0.34264,1.74443 0.73688,4.05063 0.87563,5.12491 l 0.25224,1.95326 2.41403,0.3866 c 1.32771,0.21278 3.26939,0.23975 4.3149,0.0599 1.04545,-0.17981 2.23482,-0.22077 2.64304,-0.0909 0.63853,0.2028 0.74222,-0.053 0.74222,-1.82974 0,-2.34869 0.62171,-6.18549 1.45618,-8.98687 0.31168,-1.04666 0.89947,-3.39606 1.3059,-5.2209 1.59798,-7.17467 6.72448,-11.37488 15.43264,-12.64411 2.10316,-0.30668 3.98749,-0.33265 5.49007,-0.0759 l 2.28781,0.39059 -0.12037,2.32592 c -0.23226,4.48483 -2.64854,8.14816 -7.5256,11.41015 -3.72072,2.48856 -6.66554,3.52402 -10.3445,3.63731 -4.19682,0.12936 -5.56599,0.51281 -5.31096,1.48794 0.11588,0.44254 0.061,0.71211 -0.12137,0.59943 -0.32067,-0.19829 -1.70407,7.59293 -1.70407,9.59858 0,0.63718 -0.94303,1.98094 -2.6431,3.76632 -1.54134,1.61866 -2.5856,3.07025 -2.50524,3.48232 0.31417,1.60957 4.85844,2.60129 6.9039,1.50662 1.26763,-0.67844 1.56912,-0.015 0.41757,0.91645 -1.49389,1.21108 -4.60081,1.09082 -6.58379,-0.25474 z m 1.02727,-6.7593 c 2.46883,-2.49984 2.31329,-2.78734 -1.00894,-1.8649 -1.54984,0.43055 -3.57667,0.18681 -5.91434,-0.71006 -0.45202,-0.17332 -0.68877,-0.0399 -0.68877,0.3856 0,0.53918 4.356,4.37603 5.08913,4.48267 0.12437,0.02 1.25959,-1.01379 2.52292,-2.29306 z m 15.22412,-16.52175 c 1.04666,-0.40858 1.95621,-0.78099 2.02119,-0.82754 0.065,-0.045 -0.44454,-0.68724 -1.13267,-1.42367 -1.78379,-1.90955 -2.69264,-4.57088 -2.51592,-7.36712 l 0.14734,-2.32996 -1.20888,0.70247 c -2.15131,1.25014 -4.68716,4.46154 -5.46066,6.91548 -0.86574,2.74649 -0.92519,4.19967 -0.20228,4.95144 0.7154,0.74416 5.82896,0.36411 8.35208,-0.6211 z m -26.81857,-0.75577 c 0.32916,-0.8577 -1.36247,-6.9054 -2.2991,-8.21937 -0.44903,-0.62989 -1.18247,-1.47611 -1.6299,-1.88039 -0.79591,-0.71925 -0.8138,-0.66436 -0.82644,2.53735 -0.015,3.46894 -0.91424,6.44413 -1.95061,6.44413 -2.39141,0 -5.26041,-9.02409 -3.98759,-12.54252 0.29969,-0.82868 0.13186,-0.95555 -1.8213,-1.37441 -1.18331,-0.25374 -2.9253,-0.46152 -3.87101,-0.46152 h -1.71946 l 0.29719,2.37712 c 0.3861,3.09002 1.16574,5.24522 2.69864,7.45977 1.78643,2.5808 2.90207,3.49835 5.99015,4.92651 2.22837,1.03052 3.31724,1.27132 5.82042,1.2871 2.21534,0.015 3.14098,-0.14135 3.29921,-0.55387 z m 34.85818,-4.5014 c 2.45379,-2.38027 4.22429,-5.86943 4.22429,-8.32487 v -1.10399 l -3.70034,0.24324 c -4.82671,0.31717 -5.25097,0.48749 -4.71623,1.89377 0.6786,1.78485 0.55882,7.74083 -0.1918,9.53725 l -0.6645,1.59045 1.32541,-0.75486 c 0.72899,-0.41508 2.40445,-1.80158 3.72317,-3.08079 z m -31.82729,28.29987 c -1.41018,-0.82139 -0.7276,-1.1535 1.90302,-0.92603 2.95041,0.25523 3.32243,0.40508 2.41937,0.97643 -0.82379,0.521 -3.39276,0.49098 -4.32239,-0.0505 z m -31.99607,-60.51745 c -15.12641,-32.42617 -17.31903,-37.33525 -16.87409,-37.78018 0.13786,-0.13786 2.08303,0.43554 4.32239,1.27417 15.24314,5.70924 35.59486,16.62754 36.12137,19.37847 0.10289,0.53839 -0.63175,0.14036 -2.46104,-1.3339 -3.34361,-2.69434 -21.46635,-11.96172 -27.49002,-14.05754 -1.20409,-0.41906 -1.57885,-0.69862 3.94734,2.94578 4.92046,3.24492 9.18476,6.49808 13.81073,10.53596 4.32699,3.77686 8.71486,8.43005 8.32087,8.82404 -0.13336,0.13336 -2.14171,-1.51422 -4.46294,-3.66137 -5.86608,-5.4261 -13.14318,-11.16726 -20.23434,-15.96345 -3.31045,-2.23907 -5.92037,-4.1696 -5.7999,-4.29012 0.12037,-0.12038 -0.66899,-0.56791 -1.75446,-0.99432 -1.08547,-0.42655 -2.05161,-0.69717 -2.14701,-0.60177 -0.16034,0.16033 4.48067,10.62961 12.96566,29.24718 4.64371,10.18897 6.42431,14.53179 6.26786,15.28685 -0.0714,0.34514 -2.11109,-3.61932 -4.53242,-8.8098 z m 4.82527,-3.50724 c -1.47166,-1.26838 -1.57206,-1.46003 -0.77249,-1.47381 0.93787,-0.015 3.52127,1.86125 3.52127,2.55907 0,0.77215 -1.09566,0.33965 -2.74878,-1.08526 z m 3.00841,-2.40155 c -0.46452,-0.26972 -1.74428,-0.36562 -3.06595,-0.22926 -2.40928,0.24874 -3.04203,-0.27721 -1.18362,-0.98393 1.60218,-0.60911 3.67432,-0.50167 4.74166,0.24575 1.56657,1.09726 1.1481,1.9198 -0.49199,0.96719 z m 64.02,0.0809 c 0,-0.44454 1.36358,-1.28356 2.08662,-1.28356 0.82989,0 0.46202,0.70476 -0.6264,1.2008 -1.30808,0.59597 -1.46022,0.60462 -1.46022,0.0829 z m -63.36414,-3.43871 c -0.9512,-2.47118 -0.995,-3.27998 -0.14934,-2.75728 1.11469,0.68889 2.38567,5.34732 1.45394,5.3291 -0.17432,-0.003 -0.76156,-1.16074 -1.3047,-2.57182 z m 5.2272,-0.36462 c -0.13785,-0.22327 -1.90441,-1.50588 -3.92576,-2.85083 -2.27137,-1.51137 -3.40968,-2.4965 -2.98018,-2.57921 1.65537,-0.31867 7.52954,3.72032 7.52954,5.17735 0,0.74697 -0.25424,0.85007 -0.6236,0.25274 z m 51.37065,-1.24225 c 0,-1.1544 7.74906,-5.96433 9.60887,-5.96433 1.23297,0 0.37512,0.81105 -2.19665,2.07718 -1.50543,0.74118 -3.71303,2.00426 -4.90573,2.80687 -2.3503,1.5816 -2.50649,1.64893 -2.50649,1.08028 z"
           id="path15" /><path
           id="path37"
           style="fill:#ffe7c6;fill-opacity:1;stroke-width:0.346577;stroke-linecap:round;stroke-linejoin:round;paint-order:stroke fill markers"
           d="m 695.70379,405.28644 a 1.9889971,1.4869202 0 0 0 -1.98903,1.48725 1.9889971,1.4869202 0 0 0 1.98903,1.48673 1.9889971,1.4869202 0 0 0 1.98903,-1.48673 1.9889971,1.4869202 0 0 0 -1.98903,-1.48725 z m 35.40611,0.25787 a 1.9889971,1.4869202 0 0 0 -1.98903,1.48673 1.9889971,1.4869202 0 0 0 1.98903,1.48673 1.9889971,1.4869202 0 0 0 1.98902,-1.48673 1.9889971,1.4869202 0 0 0 -1.98902,-1.48673 z" /></g></g></g></svg>
