<?xml version="1.0" encoding="UTF-8"?>
<svg id="Layer_1" xmlns="http://www.w3.org/2000/svg" version="1.1" viewBox="0 0 382.09 477.54">
  <!-- Generator: Adobe Illustrator 29.0.0, SVG Export Plug-In . SVG Version: 2.1.0 Build 186)  -->
  <path d="M382.09,301.12v43.14c-16.37,7.15-32.57,14.82-48.85,22.22-66.61,30.27-133.33,60.88-200.65,89.54-.81.35-1.67.77-2.56.83-.46-5.33-6.77-8.24-11.21-5.15-2.62,1.82-3.43,4.5-2.9,7.59.08.48,1.15,2.89,1.41,3.17l-33.98,14.78c-.1,0-.2,0-.3,0-27.38,0-54.77,0-82.15,0l33.69-15.96c.23.42,1.9,2.14,2.36,2.52,7.19,5.89,18.05-2.19,15.37-10.79,44-20.42,87.85-41.18,131.89-61.52,64.43-29.75,129.14-58.88,193.56-88.65,1.36-.63,2.89-1.39,4.34-1.72ZM345.37,341.68c-8.89,1.5-7.32,16.55,2.56,15.56,10.46-1.05,9.11-17.53-2.56-15.56ZM305.77,359.41c-6.32,1.28-5.43,13.18,3.35,11.33,1.8-.38,3.84-2.64,4.09-4.47.63-4.59-2.94-7.77-7.44-6.85ZM240.76,372.71c-3.46.64-5.19,5-3.3,7.89,2.61,4.01,8.8,2.75,9.52-1.98.55-3.62-2.65-6.57-6.21-5.92ZM176.95,412.59c-5.09.51-6.95,7.52-2.7,10.23,5.18,3.31,11.26-2.84,7.62-7.91-1.07-1.49-3.05-2.51-4.92-2.32Z" fill="#d0c4d7"/>
  <path d="M245.27,0C161.68,57.93,80.23,118.9.3,181.74c0-12.9,0-25.81,0-38.71.58,0,.82-.4,1.19-.73,26.35-24.23,52.55-48.52,79.48-72.11C108,46.5,135.61,23.47,162.83,0h82.45ZM147.68,17.81c-10.48,1.39-8.76,17.96,2.26,16.73,10.78-1.2,9.2-18.25-2.26-16.73ZM121.97,37.6c-5.05,1.05-4.26,9.08,1.38,8.48s4.15-9.63-1.38-8.48ZM96.84,81.9c-2.39.66-.02,4.02,1.28,1.89.68-1.1-.09-2.22-1.28-1.89ZM35.38,134.53c-3.34.61-3.36,6.37.82,6.45,4.83.1,4.53-7.42-.82-6.45Z" fill="#d0c4d7"/>
  <path d="M351.36,0l-32.51,22.75c-.15-.54-2.08-2.95-2.65-3.41-6.26-4.97-14.73,2.18-11.06,9.29.14.26,1.49,2.3,1.6,2.39l-49.65,35.17c-1.34.23-2.53.47-2.66,2.07l-41.96,29.55c-51.52-5.2-101.62,21.39-125.35,67.17-1.67,3.22-2.94,6.62-4.68,9.8l-10.48.75c-13,2-26.38,4.43-37.88,11.17-20.62,12.09-22.4,32.39-8.96,51.17L.3,257.98c0-18.12,0-36.25,0-54.37l68.26-51.42c3.12.74,6.49-1.82,6.5-5.02l118.2-86.29c3.32,1.29,6.94-1.17,6.8-4.73L281.32,0h70.04ZM271.49,7.75c-2.51.75-1.36,5.74,2.09,4.15,2-.92.93-5.06-2.09-4.15ZM244.61,35.54c-12.17,1.67-10.43,21.56,3.14,19.99,12.77-1.48,11.15-21.95-3.14-19.99Z" fill="#d0c4d8"/>
  <path d="M382.09,366.73v48.46l-38.71,13.59c1.22-3.4,1.49-6.81-1.19-9.6-5.53-5.76-14.55-.29-12.8,7.18.7,2.99,2.69,4.2,5.12,5.67-39.62,14.49-79.18,29.2-118.2,45.21h-84.81c84.06-35.64,167.41-72.92,250.59-110.52ZM358.37,393.68c-3.41.77-3.49,6.53.52,6.76,5.6.31,4.54-7.91-.52-6.76ZM214.46,443.02c-3.68.81-2.52,6.73,1.64,5.79,3.36-.75,2.09-6.62-1.64-5.79Z" fill="#d0c4d7"/>
  <path d="M382.09,4.73v75.95l-89.83,56.74c-13.79-14.71-33.41-27.75-52.6-33.98l105.5-73.29c.51.3,3.3.92,3.99.91,4.25-.08,6.97-4.3,6.36-8.3l26.6-18.03ZM310.22,57.69c-1.31.1-2.74,1.09-3.49,2.15-2.96,4.24,2.1,9.37,6.31,6.9,4.38-2.56,2.23-9.45-2.83-9.06ZM352.17,74.54c-2.72.46-5.44,3.33-6.22,5.9-2.26,7.43,5.41,13.6,12.4,10.04,8.04-4.1,4.4-17.73-6.19-15.94ZM313.46,100.55c-5.26.8-7.49,7.56-3.92,11.46,3.11,3.4,8.85,2.71,11.1-1.33,2.82-5.07-1.56-10.99-7.18-10.13Z" fill="#d0c4d8"/>
  <path d="M281.32,0l-81.26,56.15c-.27-6.69-10.58-5.95-9.44,1.31.16,1.02,1.73,3.06,2.64,3.42l-118.2,86.29c0-1.46-1.45-3.52-2.75-4.2-4.65-2.41-9.18,3.2-6.11,7.3.33.44,1.94,1.82,2.36,1.92L.3,203.61v-21.87C80.23,118.9,161.68,57.93,245.27,0h36.05ZM134.38,87.82c-4.93.95-3.98,8.69,1.69,7.61,4.51-.85,2.98-8.52-1.69-7.61Z" fill="#fbd294"/>
  <path d="M382.09,344.27v22.46c-83.18,37.6-166.53,74.88-250.59,110.52-.1,0-.2,0-.3,0-15.95,0-31.92,0-47.87,0l33.98-14.78c.1.11,2.16,1.4,2.46,1.53,5.16,2.38,10.73-1.55,10.25-7.15.9-.07,1.75-.49,2.56-.83,67.32-28.66,134.04-59.26,200.65-89.54,16.28-7.4,32.48-15.06,48.85-22.22ZM241.54,421.29c5.7,5.75,14.29-2.82,8.92-8.47-5.63-5.92-14.56,2.79-8.92,8.47Z" fill="#fbd294"/>
  <path d="M130.91,0L44.03,76.83c-.18-.16-3.38-1.27-3.83-1.34-6.78-1.07-11.7,6.47-7.99,12.28L.3,117.61c0-16.64,0-33.3,0-49.94L58.22,0h72.7ZM82.94,22.87c-8.54.03-7.92,13.43.84,12.59,7.42-.71,7.44-12.62-.84-12.59Z" fill="#d0c4d7"/>
  <path d="M382.09,106.68v72.4l-56.74,32.21c-1.51-18.74-9.21-41.02-19.5-56.74l76.24-47.87ZM347.44,160.53c-3.61.63-3.52,6.19.25,6.71,4.98.69,5.11-7.66-.25-6.71Z" fill="#d0c4d8"/>
  <path d="M162.83,0c-27.22,23.47-54.82,46.5-81.86,70.18C54.03,93.77,27.83,118.07,1.48,142.29c-.36.34-.61.74-1.19.73v-25.41l31.91-29.85c4.99,7.83,17.86,1.54,14-7.65-.14-.34-2.03-3.15-2.18-3.28L130.91,0h31.91Z" fill="#fbd294"/>
  <path d="M351.36,0h30.73v4.73l-26.6,18.03c-1.09-7.04-13.17-6.71-13.32,1.33-.03,1.8,1.45,5.16,2.98,6.06l-105.5,73.29c-8.14-2.64-18.67-4.76-27.19-5.61l41.96-29.55c-.4,4.75,8.06,1.74,2.66-2.07l49.65-35.17c.57.52,4,1.5,4.88,1.5,3.11,0,6.28-2.34,7.04-5.4.21-.85.41-3.66.2-4.38L351.36,0Z" fill="#fbd294"/>
  <path d="M382.09,415.19v23.94l-103.43,38.12h-62.35c39.02-16.02,78.59-30.72,118.2-45.21,2.35.11,4.31.05,6.34-1.19,1.04-.64,1.62-1.66,2.52-2.06l38.71-13.59ZM286.45,456.37c-4.83,5.19,1.88,13.08,7.86,8.89,7.04-4.94-2.09-15.09-7.86-8.89Z" fill="#fbd294"/>
  <path d="M382.09,276.6l-21.57,9.46c-.01-.09-.4-.48-.47-.85-2.99-18.21-20.89-33.31-35.15-43.47-.61-1,.36-3.55.45-4.73l56.74-31.91v71.51Z" fill="#d0c4d8"/>
  <path d="M382.09,106.68l-76.24,47.87c-3.48-5.32-9.26-12.52-13.59-17.14l89.83-56.74v26Z" fill="#fbd294"/>
  <polygon points="382.09 477.25 278.66 477.25 382.09 439.13 382.09 477.25" fill="#d0c4d7"/>
  <path d="M382.09,179.08v26l-56.74,31.91c.11-1.56.3-4.04.3-5.47v-16.55c0-.11-.29-.49-.31-.87-.05-.93.09-1.89.01-2.82l56.74-32.21ZM340.34,205.74c-3.63.82-3.38,7.62,1.12,7.93,5.97.42,5.88-9.53-1.12-7.93Z" fill="#fbd294"/>
  <path d="M58.22,0L.3,67.67c0-8.96,0-17.93,0-26.89L33.39,0h24.82ZM27.41,12.48c-9.39,1.32-7.99,16.11,2.27,14.68,9.18-1.28,7.33-16.03-2.27-14.68Z" fill="#fbd294"/>
  <polygon points="33.39 0 .3 40.78 .3 0 33.39 0" fill="#d0c4d8"/>
  <path d="M382.09,276.6v24.53c-1.45.33-2.98,1.09-4.34,1.72-64.41,29.78-129.13,58.9-193.56,88.65-44.04,20.34-87.89,41.1-131.89,61.52-.24-.76-1.97-3.12-2.65-3.7-7.7-6.5-19.84,3.11-15.08,11.98L.89,477.25l-.6-.18c0-6.83.01-13.68,0-20.51.61.08.97-.21,1.45-.46,73.27-38.58,149.09-72.15,223.84-107.73.67-.32,1.32-.77,1.96-1.15,14.44-3.2,28.31-9.08,40.7-17.07,7.95-.32,15.93.17,23.88-.06,25.57-.75,72.63-9.02,68.4-44.04l21.57-9.46Z" fill="#fbd294"/>
  <path d="M.3,40.78c0,8.96,0,17.93,0,26.89,0,16.64,0,33.3,0,49.94v25.41c0,12.9,0,25.81,0,38.71v21.87c0,18.12,0,36.25,0,54.37v21.87c0,16.84,0,33.69,0,50.53v22.46c0,13.98,0,27.98,0,41.96,0,7.28,0,14.58,0,21.87,0,13.29-.02,26.6,0,39.89,0,6.83,0,13.67,0,20.51l.6.18c27.38,0,54.77,0,82.15,0v.3H0V0h.3v40.78Z" fill="#f4eeec"/>
  <polygon points="382.09 477.25 382.09 477.54 278.37 477.54 278.37 477.25 278.66 477.25 382.09 477.25" fill="#f0edf2"/>
  <path d="M216.02,477.25v.3h-84.81v-.3c.1,0,.2,0,.3,0h84.52Z" fill="#f0edf2"/>
  <polygon points="278.37 477.25 278.37 477.54 216.02 477.54 216.02 477.25 216.31 477.25 278.37 477.25" fill="#fdf0de"/>
  <path d="M131.21,477.25v.3h-48.17v-.3c.1,0,.2,0,.3,0,15.95,0,31.92,0,47.87,0Z" fill="#fdf0de"/>
  <path d="M52.31,453.01c2.68,8.6-8.18,16.68-15.37,10.79-.46-.38-2.13-2.09-2.36-2.52-4.76-8.87,7.38-18.48,15.08-11.98.68.58,2.42,2.94,2.65,3.7Z" fill="#fefefd"/>
  <path d="M345.37,341.68c11.67-1.97,13.02,14.51,2.56,15.56-9.88.99-11.44-14.06-2.56-15.56Z" fill="#fefdfe"/>
  <path d="M130.02,456.86c.48,5.6-5.09,9.53-10.25,7.15-.3-.14-2.36-1.43-2.46-1.53-.26-.29-1.33-2.7-1.41-3.17-.52-3.09.29-5.77,2.9-7.59,4.44-3.09,10.75-.17,11.21,5.15Z" fill="#fefdfd"/>
  <path d="M305.77,359.41c4.5-.91,8.07,2.26,7.44,6.85-.25,1.83-2.29,4.09-4.09,4.47-8.78,1.86-9.67-10.04-3.35-11.33Z" fill="#fefdfe"/>
  <path d="M176.95,412.59c1.86-.19,3.85.83,4.92,2.32,3.64,5.07-2.44,11.22-7.62,7.91-4.25-2.71-2.4-9.72,2.7-10.23Z" fill="#fefdfe"/>
  <path d="M240.76,372.71c3.56-.66,6.77,2.3,6.21,5.92-.72,4.72-6.91,5.98-9.52,1.98-1.88-2.89-.15-7.26,3.3-7.89Z" fill="#fefdfe"/>
  <path d="M147.68,17.81c11.46-1.51,13.04,15.53,2.26,16.73-11.02,1.22-12.74-15.35-2.26-16.73Z" fill="#fefdfe"/>
  <path d="M121.97,37.6c5.52-1.15,7.15,7.87,1.38,8.48s-6.42-7.43-1.38-8.48Z" fill="#fcfbfc"/>
  <path d="M35.38,134.53c5.35-.97,5.64,6.55.82,6.45-4.18-.09-4.16-5.85-.82-6.45Z" fill="#fcfbfc"/>
  <path d="M96.84,81.9c1.19-.33,1.96.79,1.28,1.89-1.3,2.13-3.67-1.24-1.28-1.89Z" fill="#fcfbfa"/>
  <path d="M212.47,97.81c8.51.86,19.05,2.97,27.19,5.61,19.19,6.23,38.81,19.28,52.6,33.98,4.33,4.62,10.11,11.82,13.59,17.14,10.3,15.72,18,38,19.5,56.74.07.93-.06,1.89-.01,2.82.02.39.31.77.31.87v16.55c0,1.42-.19,3.9-.3,5.47-.08,1.18-1.06,3.74-.45,4.73,14.26,10.16,32.15,25.26,35.15,43.47.06.37.45.76.47.85,4.24,35.02-42.82,43.29-68.4,44.04-7.95.23-15.93-.26-23.88.06-12.4,7.99-26.27,13.87-40.7,17.07-27.49,6.1-58.57,2.9-83.92-9.46-3.04-1.48-6.79-3.72-9.73-5.49-3.7-2.23-7.24-4.76-10.7-7.34-.27-.15-.55-.18-.85-.17-.21-.7-1.21-1.44-1.77-1.93-10.26-8.87-20.54-18.6-27.78-29.99-.97-1.53-3.76-7.98-4.86-8.88-3.51-1.85-7.38-3.44-10.8-5.31-13.19-7.23-29.15-17.31-40.19-27.48-3.48-3.2-9-9.36-11.82-13.3-13.43-18.79-11.66-39.08,8.96-51.17,11.5-6.74,24.88-9.18,37.88-11.17l10.48-.75c1.74-3.18,3.01-6.58,4.68-9.8,23.73-45.79,73.83-72.38,125.35-67.17ZM266.15,123.63c-55.82-37.47-133.34-20.5-168.61,36.16-3.83,6.16-6.33,12.48-9.35,18.96-.98,2.1-1.55,2.17-3.82,2.39-8.91.83-17.44,1.31-26.22,3.33-30.89,7.14-47.91,26.03-23.86,54.43,15.11,17.84,38.25,29.43,58.37,40.63,15.44,28.43,41.49,50.58,72.83,59.56,34.51,9.89,70.81,4.32,100.69-15.15,17.94.01,35.54.41,53.04-3.69,12.4-2.91,29.36-9.14,33.81-22.33,6.51-19.28-15.19-38.64-28.89-48.92-1.04-.78-5.88-3.74-6.11-4.52-.26-2.36.61-4.7.82-7.04,4.17-45.62-14.6-88.22-52.7-113.8Z" fill="#fdfcfb"/>
  <path d="M36.94,251.18L.3,279.85v-21.87l24.82-20.09c2.82,3.94,8.34,10.09,11.82,13.3Z" fill="#fbd294"/>
  <path d="M244.61,35.54c14.29-1.96,15.91,18.51,3.14,19.99-13.57,1.57-15.31-18.32-3.14-19.99Z" fill="#fefdfe"/>
  <path d="M318.85,22.75c.21.72,0,3.53-.2,4.38-.76,3.06-3.92,5.4-7.04,5.4-.88,0-4.3-.98-4.88-1.5-.11-.1-1.46-2.13-1.6-2.39-3.67-7.1,4.8-14.25,11.06-9.29.57.45,2.5,2.87,2.65,3.41Z" fill="#fefdfd"/>
  <path d="M75.06,147.16c-.01,3.21-3.38,5.76-6.5,5.02-.42-.1-2.03-1.48-2.36-1.92-3.06-4.1,1.46-9.7,6.11-7.3,1.3.67,2.76,2.73,2.75,4.2Z" fill="#fffdfb"/>
  <path d="M200.06,56.15c.14,3.56-3.48,6.02-6.8,4.73-.91-.35-2.48-2.4-2.64-3.42-1.14-7.26,9.17-8.01,9.44-1.31Z" fill="#fffdfb"/>
  <path d="M271.49,7.75c3.02-.91,4.08,3.23,2.09,4.15-3.45,1.58-4.59-3.4-2.09-4.15Z" fill="#fcfbfc"/>
  <path d="M257.09,66.19c5.4,3.81-3.06,6.82-2.66,2.07.13-1.6,1.32-1.84,2.66-2.07Z" fill="#fffcf8"/>
  <path d="M343.38,428.78c-.9.39-1.48,1.42-2.52,2.06-2.04,1.25-3.99,1.3-6.34,1.19-2.43-1.47-4.42-2.68-5.12-5.67-1.75-7.47,7.26-12.94,12.8-7.18,2.68,2.79,2.41,6.2,1.19,9.6Z" fill="#fefdfd"/>
  <path d="M358.37,393.68c5.07-1.15,6.12,7.07.52,6.76-4.02-.22-3.93-5.98-.52-6.76Z" fill="#fcfbfc"/>
  <path d="M214.46,443.02c3.73-.83,5,5.04,1.64,5.79-4.16.94-5.33-4.98-1.64-5.79Z" fill="#fcfbfc"/>
  <path d="M352.17,74.54c10.58-1.79,14.23,11.84,6.19,15.94-6.99,3.56-14.66-2.61-12.4-10.04.78-2.57,3.5-5.44,6.22-5.9Z" fill="#fefdfe"/>
  <path d="M313.46,100.55c5.62-.86,10,5.07,7.18,10.13-2.25,4.04-7.99,4.72-11.1,1.33-3.57-3.89-1.34-10.66,3.92-11.46Z" fill="#fefdfe"/>
  <path d="M355.5,22.75c.62,4-2.11,8.22-6.36,8.3-.68.01-3.47-.61-3.99-.91-1.52-.9-3.01-4.26-2.98-6.06.15-8.04,12.23-8.37,13.32-1.33Z" fill="#fffdfb"/>
  <path d="M310.22,57.69c5.06-.39,7.21,6.49,2.83,9.06-4.21,2.46-9.27-2.66-6.31-6.9.74-1.06,2.17-2.05,3.49-2.15Z" fill="#fefdfe"/>
  <path d="M134.38,87.82c4.67-.9,6.19,6.76,1.69,7.61-5.66,1.07-6.61-6.66-1.69-7.61Z" fill="#fffcf8"/>
  <path d="M241.54,421.29c-5.64-5.68,3.28-14.39,8.92-8.47,5.38,5.65-3.22,14.22-8.92,8.47Z" fill="#fffdfb"/>
  <path d="M44.03,76.83c.16.13,2.04,2.94,2.18,3.28,3.86,9.19-9.02,15.48-14,7.65-3.7-5.81,1.21-13.35,7.99-12.28.45.07,3.64,1.19,3.83,1.34Z" fill="#fefdfd"/>
  <path d="M82.94,22.87c8.28-.03,8.26,11.88.84,12.59-8.76.84-9.37-12.57-.84-12.59Z" fill="#fefdfe"/>
  <path d="M347.44,160.53c5.36-.94,5.23,7.41.25,6.71-3.77-.52-3.86-6.08-.25-6.71Z" fill="#fcfbfc"/>
  <path d="M286.45,456.37c5.76-6.2,14.9,3.96,7.86,8.89-5.97,4.19-12.68-3.7-7.86-8.89Z" fill="#fffdfb"/>
  <path d="M340.34,205.74c7.01-1.59,7.1,8.35,1.12,7.93-4.5-.32-4.75-7.11-1.12-7.93Z" fill="#fffcf8"/>
  <path d="M27.41,12.48c9.59-1.35,11.44,13.4,2.27,14.68-10.26,1.43-11.65-13.36-2.27-14.68Z" fill="#fffdfb"/>
  <path d="M227.54,347.22c-.64.38-1.29.83-1.96,1.15-74.74,35.58-150.57,69.15-223.84,107.73-.48.26-.84.54-1.45.46-.02-13.29,0-26.6,0-39.89l39.01-21.57c.04.15,1.4,2.14,1.63,2.36,5.48,5.32,13.21-2.77,8.42-7.98l94.27-51.71c25.35,12.35,56.43,15.55,83.92,9.46ZM135.27,355.56c-4.53.62-3.69,7.89,1.63,6.68,3.48-.79,2.95-7.3-1.63-6.68ZM103.65,389.82c-2.26.41-2.28,4.08.49,3.79,2.61-.27,2.09-4.26-.49-3.79ZM28.59,415.85c-8.57,1.48-6.95,15.58,2.81,14.04,8.8-1.39,7.08-15.74-2.81-14.04Z" fill="#d0c4d7"/>
  <path d="M92.79,292.85c7.24,11.39,17.52,21.11,27.78,29.99.56.48,1.56,1.23,1.77,1.93-.43.01-.81.26-1.19.43-5.92,2.64-12.97,7.21-18.81,10.46-34.36,19.11-68.53,38.61-102.05,59.15,0-13.98,0-27.98,0-41.96l25.41-15.96c-.69,6.9,7,11.64,12.98,8.1,6-3.55,5.23-13.29-1.45-15.49l55.56-36.64Z" fill="#d0c4d7"/>
  <path d="M122.34,324.76c.3-.01.59.02.85.17,3.46,2.59,7,5.11,10.7,7.34,2.94,1.77,6.69,4.01,9.73,5.49l-94.27,51.71c-4.06-4.41-11.43-.16-10.05,5.61L.3,416.67c0-7.28,0-14.58,0-21.87,33.51-20.55,67.68-40.05,102.05-59.15,5.84-3.25,12.89-7.81,18.81-10.46.38-.17.76-.41,1.19-.43Z" fill="#fbd294"/>
  <path d="M77.13,278.66c-.18.5-.57.67-.98.94-4.78,3.14-9.63,6.23-14.39,9.4,2.16-3.32,2.52-6.95,0-10.19-5.73-7.34-17.24-.58-13.73,8.12,1.7,4.21,5.5,5.14,9.6,4.73L.3,330.38c0-16.84,0-33.69,0-50.53l36.64-28.66c11.03,10.17,27,20.25,40.19,27.48Z" fill="#d0c4d7"/>
  <path d="M92.79,292.85l-55.56,36.64c-5.32-1.75-10.97,1.85-11.52,7.39L.3,352.84v-22.46l57.33-38.71c.1,0,.2.02.3,0,.14-.03.25-.16.3-.3,1.69-.78,2.22-1.48,3.55-2.36,4.75-3.17,9.6-6.26,14.39-9.4.41-.27.8-.43.98-.94,3.41,1.87,7.29,3.46,10.8,5.31,1.1.9,3.89,7.35,4.86,8.88Z" fill="#fbd294"/>
  <path d="M266.15,123.63c38.1,25.58,56.87,68.18,52.7,113.8-.21,2.34-1.08,4.68-.82,7.04.23.78,5.07,3.74,6.11,4.52,13.7,10.28,35.4,29.64,28.89,48.92-4.45,13.2-21.41,19.42-33.81,22.33-17.5,4.11-35.11,3.71-53.04,3.69-29.88,19.47-66.17,25.04-100.69,15.15-31.34-8.98-57.4-31.13-72.83-59.56-20.12-11.2-43.26-22.79-58.37-40.63-24.05-28.4-7.04-47.29,23.86-54.43,8.78-2.03,17.31-2.51,26.22-3.33,2.27-.21,2.84-.28,3.82-2.39,3.02-6.48,5.52-12.8,9.35-18.96,35.27-56.66,112.79-73.64,168.61-36.16ZM227.84,113.77c-56.83-15.68-116.61,17.62-135.72,72.47-2.64,7.58-4.75,15.86-5.24,23.87-1.81,7.42-1.37,20.25-.25,27.88.23,1.55.6,4.96,1.74,5.94,31.74,20.25,68.27,34.1,104.89,42.87,3.35.8,11.87,3.25,14.78,3.1.53.66,1.54.64,2.31.79,22.32,4.36,46.6,8.05,69.34,6.88,2.07-.11,4.63.45,6.47-.62,1.25-.73,4.87-5.87,5.93-7.37,17.2-24.44,24.63-55.85,19.29-85.43-1.5-8.29-3.77-16.99-7.59-24.47-.23-2.46-4.7-10.37-6.15-12.91-15.36-26.72-40.17-44.82-69.79-52.99ZM85.7,268.62c2.98,2.42,10.87,5.84,14.67,7.64,29.15,13.83,59.71,23.45,91.12,30.77,26.42,6.16,52.44,9.98,79.64,10.94,19.51.68,53.65-.34,69.14-13.6,19.12-16.37-5.64-39.47-19.08-49.76l-5-3.42c.28,2-1.94,5.55-1.42,7.18.19.61,1.14.88,1.58,1.37,6.47,7.22,14.6,16.66,9.15,26.91-7.11,13.38-35.31,15.18-48.62,15.36-49.34.69-109.12-14.72-154.16-34.52-17.92-7.88-56.73-27.39-63.05-46.88-5.07-15.62,10.65-22.18,22.76-25.43.89-.76,1.8-5.84,2.07-7.23.03-.14.49-.43.29-.89-12.55.61-26.65,2.3-38.22,7.43-32.45,14.36-10.78,39.73,7.65,54.32,9.63,7.62,20.46,14.34,31.46,19.81ZM81.56,200.36c-6.68,1.39-16.87,6.18-17.15,14.03-.31,8.74,9.22,18.14,15.53,23.2.4-2.26-.36-4.67-.46-6.93-.29-6.8-.14-14.83.61-21.58.32-2.87,1.03-5.86,1.47-8.72ZM295.51,296.39c8.08-1.05,24.96-5.31,26.01-15.21.54-5.11-2.42-10.68-5.63-14.47-.49-.58-2.69-3.44-3.39-2.52-2.06,5.69-4.43,11.32-7.3,16.64-2.63,4.88-5.81,9.29-8.88,13.87-.2.29-1.05,1.47-.82,1.69ZM253.55,323.29c-51.65-5.12-102.25-18.52-149.81-38.87,23.91,40.01,73.55,60.44,119.14,50.59,9.77-2.11,19.08-5.74,28.03-10.09l2.64-1.64Z" fill="#7b674c"/>
  <path d="M28.59,415.85c9.89-1.7,11.61,12.65,2.81,14.04-9.77,1.54-11.39-12.57-2.81-14.04Z" fill="#fefdfe"/>
  <path d="M49.35,389.48c4.79,5.21-2.94,13.3-8.42,7.98-.23-.22-1.59-2.21-1.63-2.36-1.38-5.78,5.99-10.03,10.05-5.61Z" fill="#fefdfd"/>
  <path d="M135.27,355.56c4.58-.63,5.11,5.88,1.63,6.68-5.32,1.22-6.16-6.06-1.63-6.68Z" fill="#fcfbfc"/>
  <path d="M103.65,389.82c2.58-.46,3.1,3.53.49,3.79-2.78.28-2.75-3.39-.49-3.79Z" fill="#fcfbfc"/>
  <path d="M37.23,329.49c6.69,2.2,7.45,11.94,1.45,15.49-5.97,3.53-13.67-1.2-12.98-8.1.55-5.54,6.21-9.13,11.52-7.39Z" fill="#fefefd"/>
  <path d="M61.76,289.01c-1.33.89-1.85,1.58-3.55,2.36-.12.06-.21.19-.3.3-.09.02-.2,0-.3,0-4.1.4-7.9-.52-9.6-4.73-3.51-8.7,8-15.45,13.73-8.12,2.53,3.24,2.16,6.87,0,10.19Z" fill="#fefdfe"/>
  <path d="M57.92,291.67c.08-.1.18-.24.3-.3-.04.14-.16.27-.3.3Z" fill="#d0c4d7"/>
  <path d="M227.84,113.77c29.62,8.17,54.44,26.28,69.79,52.99,1.46,2.54,5.92,10.45,6.15,12.91.91,9.67.1,21.09-1.92,30.74-7.8,37.29-49.62,68.23-84.84,77.4-2.27.59-6.89,1.98-8.99,2.09-2.91.15-11.43-2.3-14.78-3.1-36.62-8.77-73.15-22.61-104.89-42.87-1.14-.98-1.52-4.38-1.74-5.94-1.12-7.64-1.56-20.46.25-27.88,13.75-56.41,65.52-99.53,124.57-97.53,4.96.17,9.88.96,14.8,1.46.49.05,1.28.25,1.59-.26ZM166.31,155.23c-15.13,1.46-24.03,17.61-17.63,31.34,7.71,16.54,31.61,16.9,39.67.45,7.71-15.75-4.61-33.48-22.04-31.79ZM231.92,171.78c-29.02.99-27.37,44.43.8,44.26,29.23-.17,28.73-45.27-.8-44.26ZM133.81,201.02c-4.97.25-7.95,3.9-6.29,8.78,1.2,3.56,9.02,9.24,12.72,9.74,8.26,1.1,13.02-8.89,6.3-14.28-2.5-2-9.61-4.39-12.73-4.24ZM205.08,238.18c-5.47,1.58-11.29,2.53-16.99,2.95-7.47.55-15.47.01-21.69-4.6-3.9-2.89-5.04-6.39-7.88-9.85-.65-.79-2.76-3.09-3.33-.99-.42,1.54,3.62,8.12,4.74,9.63,7.81,10.53,22.55,12.17,34.58,9.28,3.91-.94,8.43-2.86,10.58-6.41ZM223.92,232.05c-4.76.76-7.33,6.47-5.3,10.77,2.44,5.14,12.42,7.69,17.65,7.79,6.8.13,10.05-8.45,5.32-13.02-3.21-3.1-13.32-6.23-17.67-5.53Z" fill="#cfb387"/>
  <path d="M84.52,187.94c-.28,1.4-1.18,6.47-2.07,7.23-12.11,3.25-27.83,9.81-22.76,25.43,6.32,19.49,45.13,39,63.05,46.88,45.04,19.8,104.82,35.21,154.16,34.52l1.18.59c-7.09,1.25-14.11,3.2-21.22,4.34-20.65,3.33-42.99,1.32-63.75-.21-.57-.04-1.12,0-1.61.3-31.41-7.33-61.97-16.94-91.12-30.77-3.8-1.8-11.69-5.22-14.67-7.64-.9-.73-1.55-1.86-2.52-2.65-16.44-13.44-44.96-28.5-49.35-51.12-1.85-9.53,6.13-13.66,13.55-17.2,12-5.73,24-8.05,37.14-9.7Z" fill="#e4d897"/>
  <path d="M208.04,289.89c2.1-.11,6.72-1.5,8.99-2.09,35.21-9.17,77.04-40.11,84.84-77.4,2.02-9.65,2.83-21.06,1.92-30.74,3.82,7.48,6.09,16.18,7.59,24.47,5.35,29.59-2.09,60.99-19.29,85.43-1.06,1.5-4.67,6.64-5.93,7.37-1.84,1.07-4.4.52-6.47.62-22.74,1.17-47.01-2.52-69.34-6.88-.77-.15-1.78-.13-2.31-.79Z" fill="#bb9867"/>
  <path d="M253.55,323.29l-2.64,1.64c-8.95,4.35-18.26,7.98-28.03,10.09-45.59,9.85-95.23-10.58-119.14-50.59,47.56,20.34,98.17,33.75,149.81,38.87Z" fill="#bb9866"/>
  <path d="M191.49,307.03c.49-.31,1.04-.35,1.61-.3,20.76,1.53,43.1,3.54,63.75.21,7.11-1.15,14.13-3.1,21.22-4.34l-1.18-.59c13.3-.19,41.51-1.98,48.62-15.36,5.45-10.25-2.68-19.69-9.15-26.91-.45-.5-1.39-.77-1.58-1.37-.51-1.64,1.7-5.18,1.42-7.18l5,3.42c13.43,10.29,38.19,33.39,19.08,49.76-15.49,13.27-49.64,14.29-69.14,13.6-27.2-.96-53.21-4.77-79.64-10.94Z" fill="#dbc979"/>
  <path d="M227.84,113.77c-.31.51-1.1.31-1.59.26-4.92-.5-9.84-1.29-14.8-1.46-59.05-2-110.82,41.12-124.57,97.53.49-8.01,2.6-16.29,5.24-23.87,19.1-54.85,78.89-88.14,135.72-72.47Z" fill="#ede2ba"/>
  <path d="M85.7,268.62c-11-5.47-21.83-12.19-31.46-19.81-18.44-14.59-40.1-39.96-7.65-54.32,11.58-5.12,25.67-6.82,38.22-7.43.2.46-.27.75-.29.89-13.14,1.65-25.14,3.96-37.14,9.7-7.42,3.55-15.4,7.67-13.55,17.2,4.39,22.62,32.91,37.68,49.35,51.12.97.79,1.63,1.92,2.52,2.65Z" fill="#f1ecd4"/>
  <path d="M295.51,296.39c-.24-.22.62-1.4.82-1.69,3.07-4.59,6.25-8.99,8.88-13.87,2.87-5.33,5.24-10.95,7.3-16.64.7-.92,2.9,1.94,3.39,2.52,3.2,3.8,6.17,9.37,5.63,14.47-1.05,9.91-17.93,14.16-26.01,15.21ZM314.72,277.19l-.81.51-3.61,7.46c3.4-1.41,5.62-4.16,4.43-7.98Z" fill="#fcfbfa"/>
  <path d="M81.56,200.36c-.44,2.86-1.15,5.85-1.47,8.72-.75,6.75-.9,14.78-.61,21.58.1,2.26.85,4.67.46,6.93-6.31-5.06-15.84-14.46-15.53-23.2.28-7.84,10.47-12.64,17.15-14.03ZM73.58,210.99c-.42-.5-2.28,2.06-2.43,2.44-.86,2.27.67,5.43,1.99,7.3l.44-9.75Z" fill="#fdfcfb"/>
  <path d="M166.31,155.23c17.43-1.68,29.75,16.05,22.04,31.79-8.06,16.45-31.96,16.09-39.67-.45-6.4-13.74,2.5-29.88,17.63-31.34ZM167.77,169.69c-3.25.67-6.33,7.73-6.43,10.73-.19,5.63,6.93,7.34,8.93,2.7.84-1.95,1.73-9.2,1.41-11.27-.3-1.88-2.19-2.52-3.91-2.16Z" fill="#fefefd"/>
  <path d="M231.92,171.78c29.53-1,30.03,44.09.8,44.26-28.17.17-29.82-43.28-.8-44.26ZM233.37,184.46c-.63.15-1.29.77-1.69,1.27-1.59,2.01-3.33,11.32-2.94,13.87.61,3.96,5.9,4.32,7.63.28,1.1-2.56,1.46-9.28.88-12.05-.46-2.22-1.26-3.98-3.89-3.37Z" fill="#fefefd"/>
  <path d="M223.92,232.05c4.35-.7,14.46,2.43,17.67,5.53,4.74,4.58,1.49,13.15-5.32,13.02-5.23-.1-15.21-2.64-17.65-7.79-2.04-4.3.53-10.01,5.3-10.77Z" fill="#fac1b8"/>
  <path d="M133.81,201.02c3.12-.16,10.24,2.23,12.73,4.24,6.71,5.39,1.96,15.38-6.3,14.28-3.7-.49-11.52-6.18-12.72-9.74-1.65-4.88,1.32-8.54,6.29-8.78Z" fill="#fac1b8"/>
  <path d="M205.08,238.18c-2.15,3.55-6.67,5.47-10.58,6.41-12.03,2.9-26.77,1.26-34.58-9.28-1.12-1.52-5.16-8.09-4.74-9.63.57-2.09,2.68.2,3.33.99,2.84,3.46,3.98,6.96,7.88,9.85,6.22,4.61,14.22,5.15,21.69,4.6,5.7-.42,11.52-1.37,16.99-2.95Z" fill="#7b674c"/>
  <path d="M314.72,277.19c1.19,3.82-1.03,6.56-4.43,7.98l3.61-7.46.81-.51Z" fill="#d2c7d9"/>
  <path d="M73.58,210.99l-.44,9.75c-1.31-1.88-2.85-5.03-1.99-7.3.15-.38,2-2.94,2.43-2.44Z" fill="#d2c7d9"/>
  <path d="M167.77,169.69c1.71-.35,3.61.29,3.91,2.16.33,2.07-.57,9.32-1.41,11.27-2,4.64-9.12,2.93-8.93-2.7.1-3.01,3.18-10.07,6.43-10.73Z" fill="#7a684d"/>
  <path d="M233.37,184.46c2.63-.61,3.43,1.15,3.89,3.37.57,2.77.21,9.49-.88,12.05-1.73,4.04-7.02,3.68-7.63-.28-.39-2.55,1.34-11.86,2.94-13.87.39-.49,1.06-1.12,1.69-1.27Z" fill="#7b674c"/>
</svg>